# xmcd
# Track frame offsets:
# 150
# 15975
# 33832
# 47865
# 66657
# 87052
# 100107
# 114802
# 131270
# 147990
# 164355
# 181477
# 200280
# 217832
# 236062
# 254860
# 274012
#
# Disc length: 3874 seconds
# Revision: 3
# Processed by: cddbd v1.5.1PL0 Copyright (c) Steve Scherf et al.
# Submitted via: VisiTrax 2.9.10.228 - For more info visit www.synapsa.com
#
DISCID=ea0f2011
DTITLE=Various Artist - CDX 349 July 2004
DYEAR=2004
DGENRE=Country
TTITLE0=Diamond Rio - Can't you tell
TTITLE1=Trent Willmon - Dixie Rose Deluxe's Honky Tonk
TTITLE2=The Jenkins - Getaway car
TTITLE3=Cledus T. Judd - I love Nascar
TTITLE4=Robert Earl Keen - Out here in the middle
TTITLE5=Willie Nelson - Please don't talk about me when I'm gone
TTITLE6=The Charlie Daniels Band - The Intimidator
TTITLE7=Montgomery Gentry - You do your thing
TTITLE8=T. Graham Brown and George Jones - Bags of bones
TTITLE9=Rustie Blue and Bill Anderson - Chip chip
TTITLE10=Sean Locke - Don't look away
TTITLE11=Con Hunley - Still
TTITLE12=Jill King - Three months, two years, one day
TTITLE13=Brittany Wells - From harms way
TTITLE14=Gerald Johnson - Little hands
TTITLE15=Chis Bullinger - Moment of happy
TTITLE16=Kacey Jones - I could get over him
EXTD=
EXTT0=
EXTT1=
EXTT2=
EXTT3=
EXTT4=
EXTT5=
EXTT6=
EXTT7=
EXTT8=
EXTT9=
EXTT10=
EXTT11=
EXTT12=
EXTT13=
EXTT14=
EXTT15=
EXTT16=
PLAYORDER=
